<svg width="248" height="41" viewBox="0 0 248 41" fill="none" xmlns="http://www.w3.org/2000/svg">
<path d="M0 7.79379H2.19447V37.4408H20.0428V39.5803H0V7.79379Z" fill="#083366"/>
<path d="M26.041 26.285V7.79379H29.5522V26.1321C29.5522 33.009 33.0633 36.8295 38.9152 36.8295C44.4746 36.8295 48.132 33.3147 48.132 26.285V7.79379H51.6432V25.9793C51.6432 35.3013 46.5227 40.0387 38.9152 40.0387C31.3077 40.1915 26.041 35.3013 26.041 26.285Z" fill="#083366"/>
<path d="M59.251 7.79379H64.9566L74.1734 22.9229L83.3902 7.79379H89.0958V39.5803H83.8291V16.6573L74.3197 31.7865H74.1734L64.664 16.8101V39.5803H59.3973V7.79379H59.251Z" fill="#083366"/>
<path d="M97.1416 7.79379H103.871V39.5803H97.1416V7.79379Z" fill="#083366"/>
<path d="M110.455 7.79379H118.355L130.937 24.6039V7.79379H139.276V39.5803H131.961L118.94 22.1588V39.5803H110.601V7.79379H110.455Z" fill="#083366"/>
<path d="M204.086 22.9229H193.553L186.53 5.19586H194.577C196.332 5.19586 197.942 6.2656 198.527 8.09943L204.086 22.9229Z" fill="#396AB1"/>
<path d="M195.308 22.9229H193.552L200.136 12.3784L201.452 15.5876L195.308 22.9229Z" fill="#12477C"/>
<path d="M220.618 38.969L226.47 16.0461H217.546L219.448 8.55789H246.074L244.172 16.0461H235.248L229.25 38.969H220.618Z" fill="#083366"/>
<path d="M245.196 9.32199L243.733 15.282H235.833H234.662L234.37 16.3517L228.664 38.2049H221.496L226.909 17.2686L227.348 15.282H225.446H218.423L219.886 9.32199H245.196ZM247.098 7.79379H218.862L216.521 16.8102H225.446L219.594 39.7331H229.835L235.687 16.8102H244.611L247.098 7.79379Z" fill="#FF6600"/>
<path d="M244.757 16.8101L247.097 7.79379H211.254V16.8101H244.757Z" fill="#FF6600"/>
<path d="M244.025 15.8932L245.927 8.71071H211.108L211.254 15.8932H244.025Z" fill="#083366"/>
<path d="M194.43 22.9229H206.28L227.494 0H215.643L194.43 22.9229Z" fill="#FF6600"/>
<path d="M194.43 22.9229H197.941L219.155 0H215.643L194.43 22.9229Z" fill="#083366"/>
<path d="M196.625 23.687H207.158L213.01 38.2049H204.671C203.062 38.2049 201.599 37.1351 201.014 35.607L196.625 23.687Z" fill="#FF6600"/>
<path d="M196.625 23.687H207.158L212.718 37.5936H204.525C202.916 37.5936 201.453 36.5239 200.868 34.9957L196.625 23.687Z" fill="#083366"/>
<mask id="mask0_17_1271" style="mask-type:luminance" maskUnits="userSpaceOnUse" x="196" y="23" width="17" height="15">
<path d="M196.625 23.687H207.158L212.718 37.5936H204.525C202.916 37.5936 201.453 36.5239 200.868 34.9957L196.625 23.687Z" fill="white"/>
</mask>
<g mask="url(#mask0_17_1271)">
<path d="M205.257 23.687H207.158L200.429 34.3844L199.258 31.0224L205.257 23.687Z" fill="#021426"/>
</g>
<path d="M206.28 23.687H194.43L179.946 39.7331H192.528L206.28 23.687Z" fill="#FF6600"/>
<path d="M150.98 7.79379H160.489L167.365 23.0758L171.315 7.79379H181.41L173.217 39.7331H164.147L156.978 23.8398L152.882 39.7331H142.787L150.98 7.79379Z" fill="#396AB1"/>
<path d="M196.028 16.8226L196.028 7.8062L173.206 7.80632L173.206 16.8227L196.028 16.8226Z" fill="#396AB1"/>
<path d="M235.833 16.6573H225.592L219.594 39.7331H229.835L235.833 16.6573Z" fill="#FF6600"/>
<path d="M234.955 15.8932H226.762L220.91 38.8162H229.103L234.955 15.8932Z" fill="#083366"/>
</svg>
